<svg xmlns="http://www.w3.org/2000/svg" width="243" height="40" viewBox="0 0 243 40" fill="none">
    <path fill-rule="evenodd" clip-rule="evenodd" d="M41.4587 11.0774C36.7016 11.5567 31.8768 12.1601 27.2687 13.0674C26.7669 13.1422 26.2657 13.2167 25.7655 13.2913L25.7383 13.296C17.4135 14.9732 9.55132 17.2781 4.70178 20.5675L4.70124 20.5679C2.34975 22.1708 0.659921 23.7698 0.0808173 25.4424L0.0765034 25.4546C-0.150642 26.2299 0.134411 26.8948 0.8466 27.429C2.08394 28.3572 4.86634 28.867 7.60989 28.9107C13.755 29.0309 20.2063 28.3066 26.8566 27.4444H26.8573C39.7187 25.7386 52.1295 23.3882 66.0037 20.1909L66.0101 20.1895C66.8268 19.9798 67.4786 19.7724 68.2922 19.5631C75.437 17.8506 81.9226 16.1023 88.2571 13.7668L87.8837 12.7543C81.5868 15.0759 75.1389 16.8125 68.039 18.5142L68.0347 18.5151C67.2164 18.7255 66.565 18.9327 65.7562 19.1406C51.919 22.3293 39.5422 24.6734 26.7171 26.3744C20.1219 27.2293 13.7243 27.9511 7.63003 27.8318L7.62895 27.8316C5.47601 27.7977 3.28963 27.4901 1.99654 26.8641C1.70393 26.7224 1.46185 26.567 1.29154 26.3884C1.1241 26.2125 1.04227 26.0136 1.10486 25.7834C1.63091 24.2824 3.19952 22.8976 5.30804 21.4602C10.0624 18.2354 17.7773 16.0014 25.9382 14.3565C26.4379 14.2821 26.9386 14.2074 27.4401 14.1328L27.4525 14.131C32.727 13.0918 38.274 12.4554 43.6729 11.9457C44.2903 11.8944 44.9087 11.8455 45.5225 11.807L45.5437 10.7319C44.9543 10.6715 44.3781 10.6001 43.824 10.5134C42.4881 10.3046 41.2439 9.98734 40.5857 9.49816C40.403 9.36255 40.2609 9.23145 40.2724 9.0525C40.2881 8.80935 40.5006 8.56638 40.8708 8.26082C42.9293 6.56128 47.3154 5.16495 51.0419 4.12473C55.8879 2.77192 61.5496 1.56588 66.7119 1.16249C67.4835 1.10206 68.419 1.04343 69.1736 1.10116C69.5204 1.12777 69.824 1.16375 70.022 1.26302C69.9991 1.29917 69.9713 1.34035 69.9461 1.36967C69.8504 1.48189 69.7286 1.59322 69.5992 1.70023C68.7828 2.37447 67.5577 3.03036 66.3109 3.60587L66.763 4.58567C68.1009 3.96808 69.4105 3.25571 70.2863 2.53219C70.6935 2.1957 71.0181 1.80292 71.1102 1.47002C71.2163 1.08641 71.1358 0.72672 70.7354 0.437348V0.437167C70.495 0.263435 70.1227 0.135747 69.6648 0.0695633C68.8053 -0.0548901 67.5964 0.0109337 66.6277 0.0866488C61.3978 0.495438 55.6613 1.71479 50.7517 3.08522C46.874 4.16789 42.3257 5.66025 40.1838 7.42886C39.4967 7.99609 39.2246 8.53203 39.1955 8.98308C39.1624 9.4987 39.4158 9.97313 39.9422 10.3643C40.3116 10.6389 40.838 10.8774 41.4587 11.0774Z" fill="black"/>
    <path fill-rule="evenodd" clip-rule="evenodd" d="M174.377 11.867C163.5 15.7878 149.814 20.1449 140.508 19.4419C132.735 18.8547 131.304 14.3136 131.304 14.3136L131.135 13.7451L130.584 13.9681C127.682 15.1457 116.087 18.0878 107.127 18.9934C103.357 19.3743 100.061 19.4059 98.1159 18.7563C95.7144 17.9542 94.6981 17.1492 94.3934 16.3942C94.0292 15.4909 94.8916 14.801 94.8916 14.801L96.4312 13.5188L94.456 13.8544C90.3701 14.5486 88.295 14.6087 87.2746 14.4109C87.0951 14.376 86.9564 14.3346 86.8519 14.2844C86.832 14.2747 86.8099 14.2609 86.7911 14.2483L86.8476 14.1566L86.0869 13.3912C86.0869 13.3912 85.9153 13.5593 85.8022 13.8001C85.7079 14.0005 85.6581 14.2425 85.711 14.4864C85.7648 14.7346 85.9171 15.0107 86.3212 15.225C86.6471 15.3977 87.2104 15.5486 88.1589 15.5792C89.2471 15.614 90.9037 15.5009 93.399 15.1186C93.2138 15.5844 93.1367 16.1628 93.3928 16.7978C93.7589 17.7055 94.8869 18.8155 97.7742 19.7796C99.8168 20.462 103.277 20.467 107.235 20.0669C115.859 19.1955 126.89 16.4527 130.489 15.1587C131.138 16.5111 133.473 19.9926 140.426 20.5177C148.762 21.1475 160.581 17.7749 170.811 14.2537C168.381 15.9191 165.818 17.7542 163.14 19.7703L163.75 20.6589C163.75 20.6589 165.496 19.5678 167.802 18.4705L168.001 18.5894C168.69 18.9977 170.073 19.1538 171.613 19.0793C171.944 19.0633 172.282 19.0376 172.622 19.0029C173.258 19.4408 174.104 19.8582 175.125 20.219C177.443 21.0371 180.69 21.5959 184.344 21.5511C188.632 21.4984 196.379 21.2037 203.329 19.7401C205.053 19.8832 206.819 19.8793 206.819 19.8793L206.848 19.8791L206.877 19.8757C206.877 19.8757 208.237 19.7158 209.492 19.1468C209.582 19.3248 209.726 19.5147 209.959 19.6998C210.609 20.2168 212.17 20.7805 215.855 20.7298C222.687 20.6355 237.316 19.7512 242.467 21.5218L242.817 20.5014C237.596 18.7063 222.766 19.5554 215.84 19.6507C212.596 19.6955 211.202 19.3108 210.63 18.8556C210.438 18.702 210.432 18.5139 210.432 18.5139L210.724 17.4929L210.904 17.4136L210.997 17.372L211.069 17.2992C211.069 17.2992 211.413 16.949 211.601 16.5395C211.749 16.2216 211.797 15.8741 211.691 15.5745C211.61 15.3486 211.449 15.1326 211.137 14.9751C210.848 14.8281 210.373 14.7229 209.62 14.754C208.666 14.7936 207.192 15.045 204.954 15.6583C202.386 16.3622 200.98 16.9296 200.354 17.3641C199.901 17.679 199.753 18.004 199.735 18.2495C199.721 18.4842 199.8 18.7083 199.996 18.9059C200.097 19.007 200.244 19.1058 200.429 19.1942C194.329 20.2091 188.025 20.4267 184.33 20.472C180.824 20.515 177.708 19.9865 175.485 19.2014C175.08 19.0586 174.706 18.9088 174.366 18.7527C175.654 18.5132 176.803 18.1704 177.456 17.7945C178.105 17.4204 178.33 16.9354 178.247 16.5368C178.209 16.3487 178.105 16.15 177.893 15.9635C177.701 15.7932 177.388 15.6151 176.924 15.4527C175.587 14.9853 173.774 15.1779 171.892 15.7162C171.017 15.9662 170.127 16.2883 169.266 16.6411C171.226 15.259 173.109 13.9839 174.904 12.811C179.886 11.0192 184.261 9.32771 187.349 8.25745C191.448 6.83667 194.149 5.39682 195.798 4.19833C196.976 3.34082 197.636 2.58277 197.915 2.03083C198.199 1.46467 198.133 1.02081 197.939 0.742591C197.786 0.524259 197.534 0.362579 197.171 0.324272C197.003 0.306647 196.714 0.331105 196.313 0.425704C195.554 0.604471 194.293 1.03646 192.585 1.76322C188.678 3.42356 182.385 6.63884 174.377 11.867ZM209.125 18.1297C208.609 18.3177 208.078 18.4955 207.535 18.6635C207.988 18.5614 208.575 18.3936 209.125 18.1297ZM210.666 15.9491C210.648 15.939 210.625 15.9257 210.605 15.918C210.389 15.8336 210.049 15.8079 209.539 15.8387C208.63 15.8933 207.264 16.1439 205.239 16.6989C203.179 17.2634 201.915 17.7184 201.226 18.0945C201.147 18.138 201.068 18.1902 201.001 18.2393C201.199 18.3135 201.492 18.4123 201.757 18.4623C202.205 18.5472 202.728 18.6108 203.262 18.6585C205.821 18.1105 208.262 17.3983 210.364 16.4728C210.434 16.391 210.549 16.2458 210.623 16.0849C210.641 16.0475 210.657 15.9831 210.666 15.9491ZM171.512 18.0037C171.143 17.7109 170.701 17.6911 170.287 17.7706C170.066 17.8134 169.85 17.883 169.652 17.9634C170.048 18.0096 170.503 18.0245 170.987 18.0189C171.158 18.017 171.334 18.0119 171.512 18.0037ZM177.098 16.7307C176.981 16.6582 176.782 16.5464 176.567 16.4714C175.3 16.0275 173.548 16.3149 171.755 16.8809C172.037 17.0188 172.307 17.2253 172.548 17.5172C172.65 17.6418 172.776 17.7648 172.92 17.8857C174.066 17.7483 175.197 17.5143 176.048 17.2285C176.393 17.1127 176.69 16.9897 176.916 16.8595C176.979 16.8233 177.046 16.7735 177.098 16.7307ZM197.009 1.39561C196.856 1.39633 196.599 1.45874 196.235 1.56053C195.496 1.76789 194.408 2.15978 193.005 2.75615C189.847 4.09888 185.117 6.46817 179.175 10.1075C182.231 8.9727 184.911 7.96089 186.997 7.2379C192.606 5.29323 195.505 3.34604 196.604 2.04612C196.788 1.83048 196.913 1.63967 196.984 1.47331C196.993 1.45029 197.002 1.42223 197.009 1.39561Z" fill="black"/>
    <path fill-rule="evenodd" clip-rule="evenodd" d="M130.697 8.17099L130.639 8.29059C130.639 8.29059 132.186 9.03785 134.046 9.30762C135.337 9.49484 136.77 9.44538 137.97 8.81448C138.643 8.46072 138.731 8.01866 138.666 7.75177C138.625 7.58559 138.519 7.41168 138.308 7.26978C138.092 7.12501 137.693 6.99084 137.164 6.90362C135.182 6.57648 131.121 6.74625 129.704 7.35899C129.035 7.64782 128.825 8.10607 128.92 8.50352L129.97 8.25246C129.988 8.32566 129.931 8.46396 129.931 8.46396C129.931 8.46396 130.188 8.31756 130.406 8.25066C130.496 8.2226 130.593 8.19599 130.697 8.17099ZM137.166 8.00013C136.812 7.92963 136.362 7.88072 135.86 7.85015C134.878 7.79008 133.702 7.80231 132.636 7.88827C133.096 8.02622 133.632 8.15732 134.2 8.23969C135.168 8.38015 136.235 8.38482 137.166 8.00013Z" fill="black"/>
    <path d="M75.5657 35.5561C75.5657 35.5973 75.563 35.6331 75.5576 35.6633C75.5518 35.6937 75.5425 35.718 75.5291 35.7363C75.5155 35.7547 75.5 35.7685 75.4826 35.7772C75.4646 35.7856 75.4464 35.7901 75.4275 35.7901H73.5044V37.2192H75.322C75.3409 37.2192 75.3592 37.2231 75.377 37.2307C75.3944 37.2382 75.4101 37.2506 75.4236 37.2679C75.4369 37.2852 75.4464 37.3084 75.452 37.3377C75.4574 37.3668 75.4603 37.4042 75.4603 37.4497C75.4603 37.4909 75.4574 37.526 75.452 37.5553C75.4464 37.5844 75.4369 37.6083 75.4236 37.6269C75.4101 37.6452 75.3944 37.6592 75.377 37.669C75.3592 37.6788 75.3409 37.6835 75.322 37.6835H73.5044V39.4343C73.5044 39.4494 73.499 39.464 73.4881 39.4782C73.4775 39.4924 73.4584 39.503 73.4314 39.5106C73.4043 39.5183 73.3692 39.5246 73.326 39.5302C73.2827 39.5356 73.2259 39.5383 73.1555 39.5383C73.0904 39.5383 73.0351 39.5356 72.989 39.5302C72.9432 39.5246 72.9066 39.5183 72.8797 39.5106C72.8525 39.503 72.8334 39.4924 72.8228 39.4782C72.8119 39.464 72.8066 39.4494 72.8066 39.4343V35.5432C72.8066 35.4587 72.8343 35.3997 72.8897 35.366C72.9451 35.3326 73.0038 35.3157 73.0662 35.3157H75.4275C75.4464 35.3157 75.4646 35.3202 75.4826 35.3286C75.5 35.3374 75.5155 35.3515 75.5291 35.3711C75.5425 35.3905 75.5518 35.416 75.5576 35.4473C75.563 35.4786 75.5657 35.5149 75.5657 35.5561Z" fill="black"/>
    <path d="M89.6066 35.8743H89.6024L88.6976 37.9694H90.5234L89.6066 35.8743ZM91.8665 39.3206C91.8881 39.3684 91.8996 39.4067 91.9008 39.436C91.9023 39.4651 91.892 39.4874 91.8705 39.5026C91.8489 39.5177 91.8131 39.5274 91.7631 39.5317C91.7129 39.536 91.646 39.5382 91.5622 39.5382C91.4782 39.5382 91.4113 39.5365 91.3613 39.5335C91.3113 39.5301 91.2734 39.5247 91.2477 39.5171C91.2219 39.5096 91.2031 39.4991 91.191 39.4862C91.1788 39.4732 91.1673 39.4571 91.1565 39.4375L90.7061 38.4143H88.5232L88.0932 39.4245C88.0851 39.4441 88.0741 39.4608 88.0606 39.475C88.0471 39.4891 88.0275 39.5009 88.0018 39.5106C87.9761 39.5204 87.9396 39.5274 87.8923 39.5317C87.845 39.536 87.7833 39.5382 87.7076 39.5382C87.6292 39.5382 87.565 39.5355 87.515 39.5301C87.4648 39.5247 87.4297 39.5144 87.4096 39.4991C87.3892 39.484 87.3797 39.4619 87.381 39.4326C87.3824 39.4035 87.3939 39.365 87.4155 39.3175L89.1764 35.4132C89.1872 35.3895 89.2014 35.3699 89.219 35.3546C89.2366 35.3395 89.2622 35.3276 89.2961 35.319C89.33 35.3104 89.3733 35.3044 89.426 35.301C89.4787 35.2979 89.5458 35.2961 89.6269 35.2961C89.7134 35.2961 89.7851 35.2979 89.8418 35.301C89.8986 35.3044 89.9445 35.3104 89.9797 35.319C90.015 35.3276 90.042 35.34 90.0609 35.3564C90.0797 35.3726 90.0947 35.3925 90.1056 35.4165L91.8665 39.3206Z" fill="black"/>
    <path d="M106.011 38.3392C106.011 38.5363 105.966 38.7116 105.875 38.8654C105.784 39.0192 105.659 39.1495 105.498 39.2569C105.337 39.3639 105.147 39.4447 104.93 39.4986C104.712 39.5528 104.477 39.5799 104.226 39.5799C104.05 39.5799 103.887 39.568 103.737 39.5441C103.587 39.5202 103.453 39.4911 103.335 39.4565C103.217 39.422 103.119 39.3862 103.039 39.3493C102.959 39.3125 102.904 39.281 102.873 39.2551C102.841 39.229 102.818 39.1963 102.804 39.156C102.789 39.1159 102.781 39.0623 102.781 38.9952C102.781 38.9478 102.784 38.9082 102.789 38.8767C102.795 38.8452 102.803 38.8199 102.814 38.8003C102.825 38.7809 102.838 38.7675 102.854 38.7598C102.871 38.7523 102.89 38.7483 102.911 38.7483C102.949 38.7483 103.002 38.7668 103.071 38.8037C103.14 38.8406 103.229 38.8807 103.337 38.9238C103.445 38.9672 103.576 39.0078 103.729 39.0458C103.882 39.0835 104.058 39.1024 104.258 39.1024C104.41 39.1024 104.548 39.0862 104.674 39.0539C104.8 39.0213 104.908 38.9753 104.999 38.9157C105.089 38.8562 105.159 38.7832 105.208 38.6963C105.256 38.61 105.281 38.5113 105.281 38.401C105.281 38.282 105.247 38.18 105.179 38.0956C105.112 38.0111 105.022 37.937 104.911 37.873C104.801 37.8093 104.674 37.7509 104.532 37.6978C104.39 37.6448 104.245 37.5905 104.096 37.5352C103.947 37.4802 103.802 37.4189 103.662 37.3518C103.521 37.2847 103.395 37.2056 103.284 37.1146C103.173 37.0238 103.084 36.9171 103.015 36.7946C102.946 36.6723 102.911 36.5258 102.911 36.3546C102.911 36.1792 102.951 36.0227 103.031 35.8852C103.111 35.7478 103.222 35.6325 103.364 35.5393C103.505 35.4463 103.675 35.3755 103.871 35.3266C104.067 35.278 104.278 35.2535 104.506 35.2535C104.622 35.2535 104.739 35.2616 104.857 35.278C104.974 35.294 105.085 35.3158 105.189 35.3429C105.293 35.3699 105.386 35.4001 105.467 35.4337C105.548 35.4674 105.602 35.4945 105.627 35.515C105.653 35.5355 105.67 35.5519 105.678 35.5636C105.686 35.5756 105.693 35.5909 105.699 35.6091C105.704 35.6276 105.708 35.6497 105.711 35.6756C105.713 35.7017 105.715 35.7353 105.715 35.7765C105.715 35.8154 105.713 35.8501 105.709 35.8803C105.705 35.9107 105.699 35.9362 105.69 35.9567C105.682 35.9772 105.671 35.9923 105.656 36.0022C105.641 36.0119 105.624 36.0168 105.605 36.0168C105.575 36.0168 105.529 36.0017 105.465 35.9713C105.402 35.9411 105.324 35.9071 105.232 35.8692C105.14 35.8312 105.031 35.7965 104.905 35.765C104.78 35.7337 104.638 35.7181 104.481 35.7181C104.335 35.7181 104.208 35.7337 104.1 35.765C103.992 35.7965 103.902 35.8382 103.832 35.8902C103.762 35.9422 103.709 36.0039 103.674 36.0753C103.639 36.1468 103.621 36.2225 103.621 36.3028C103.621 36.4195 103.655 36.5204 103.723 36.6045C103.79 36.6891 103.88 36.7639 103.992 36.829C104.105 36.8937 104.232 36.9534 104.376 37.0076C104.519 37.0615 104.665 37.1162 104.814 37.1716C104.963 37.2266 105.109 37.2872 105.252 37.3534C105.395 37.4196 105.523 37.4973 105.636 37.5872C105.748 37.6771 105.839 37.7833 105.908 37.9055C105.977 38.028 106.011 38.1724 106.011 38.3392Z" fill="black"/>
    <path d="M122.912 39.4343C122.912 39.4515 122.907 39.4666 122.896 39.4796C122.885 39.4925 122.866 39.503 122.839 39.5105C122.812 39.5183 122.776 39.5246 122.732 39.5299C122.687 39.5353 122.632 39.538 122.567 39.538C122.497 39.538 122.44 39.5353 122.397 39.5299C122.354 39.5246 122.318 39.5183 122.291 39.5105C122.264 39.503 122.245 39.4925 122.235 39.4796C122.224 39.4666 122.218 39.4515 122.218 39.4343V37.5698H119.829V39.4343C119.829 39.4515 119.823 39.4666 119.812 39.4796C119.802 39.4925 119.783 39.503 119.756 39.5105C119.728 39.5183 119.693 39.5246 119.648 39.5299C119.604 39.5353 119.547 39.538 119.48 39.538C119.415 39.538 119.359 39.5353 119.313 39.5299C119.267 39.5246 119.231 39.5183 119.204 39.5105C119.177 39.503 119.158 39.4925 119.147 39.4796C119.136 39.4666 119.131 39.4515 119.131 39.4343V35.4C119.131 35.3829 119.136 35.3676 119.147 35.3545C119.158 35.3415 119.177 35.3314 119.204 35.3239C119.231 35.3163 119.267 35.3097 119.313 35.3043C119.359 35.2989 119.415 35.296 119.48 35.296C119.547 35.296 119.604 35.2989 119.648 35.3043C119.693 35.3097 119.728 35.3163 119.756 35.3239C119.783 35.3314 119.802 35.3415 119.812 35.3545C119.823 35.3676 119.829 35.3829 119.829 35.4V37.0826H122.218V35.4C122.218 35.3829 122.224 35.3676 122.235 35.3545C122.245 35.3415 122.264 35.3314 122.291 35.3239C122.318 35.3163 122.354 35.3097 122.397 35.3043C122.44 35.2989 122.497 35.296 122.567 35.296C122.632 35.296 122.687 35.2989 122.732 35.3043C122.776 35.3097 122.812 35.3163 122.839 35.3239C122.866 35.3314 122.885 35.3415 122.896 35.3545C122.907 35.3676 122.912 35.3829 122.912 35.4V39.4343Z" fill="black"/>
    <path d="M137.29 39.4343C137.29 39.4515 137.284 39.4666 137.273 39.4796C137.263 39.4925 137.243 39.503 137.216 39.5105C137.189 39.5183 137.153 39.5246 137.108 39.5299C137.065 39.5353 137.007 39.538 136.941 39.538C136.876 39.538 136.82 39.5353 136.773 39.5299C136.728 39.5246 136.691 39.5183 136.664 39.5105C136.637 39.503 136.619 39.4925 136.608 39.4796C136.597 39.4666 136.592 39.4515 136.592 39.4343V35.4C136.592 35.3829 136.597 35.3676 136.61 35.3545C136.622 35.3415 136.642 35.3314 136.671 35.3239C136.7 35.3163 136.736 35.3097 136.781 35.3043C136.824 35.2989 136.878 35.296 136.941 35.296C137.007 35.296 137.065 35.2989 137.108 35.3043C137.153 35.3097 137.189 35.3163 137.216 35.3239C137.243 35.3314 137.263 35.3415 137.273 35.3545C137.284 35.3676 137.29 35.3829 137.29 35.4V39.4343Z" fill="black"/>
    <path d="M154.322 37.4069C154.322 37.1688 154.295 36.9474 154.243 36.7427C154.191 36.5381 154.102 36.3607 153.98 36.21C153.856 36.0597 153.692 35.942 153.487 35.8577C153.282 35.7732 153.029 35.7311 152.725 35.7311C152.423 35.7311 152.169 35.7766 151.964 35.8672C151.759 35.9582 151.592 36.0796 151.462 36.2312C151.335 36.3828 151.243 36.5598 151.187 36.7621C151.131 36.9646 151.104 37.1776 151.104 37.4004C151.104 37.6473 151.13 37.8749 151.182 38.0826C151.232 38.2905 151.318 38.4696 151.441 38.6201C151.563 38.7707 151.725 38.8876 151.93 38.9708C152.133 39.0543 152.388 39.096 152.698 39.096C153.002 39.096 153.259 39.0505 153.468 38.9595C153.674 38.8687 153.842 38.7457 153.969 38.5908C154.097 38.4361 154.187 38.257 154.241 38.0534C154.295 37.8499 154.322 37.6344 154.322 37.4069ZM155.061 37.3679C155.061 37.708 155.011 38.0144 154.91 38.2872C154.811 38.5601 154.66 38.7922 154.462 38.984C154.262 39.1755 154.014 39.3228 153.714 39.4257C153.414 39.5285 153.063 39.58 152.662 39.58C152.268 39.58 151.926 39.5328 151.639 39.4386C151.351 39.3444 151.112 39.2075 150.925 39.0278C150.736 38.8482 150.595 38.625 150.504 38.3586C150.412 38.0925 150.365 37.7858 150.365 37.4394C150.365 37.1082 150.416 36.8073 150.516 36.5364C150.617 36.2658 150.766 36.0357 150.966 35.8462C151.167 35.6568 151.417 35.5106 151.718 35.4077C152.018 35.3049 152.367 35.2534 152.768 35.2534C153.155 35.2534 153.491 35.3 153.779 35.3932C154.065 35.4863 154.304 35.6221 154.494 35.8007C154.685 35.9795 154.827 36.2003 154.921 36.4634C155.014 36.7265 155.061 37.0281 155.061 37.3679Z" fill="black"/>
    <path d="M170.377 39.2878C170.377 39.3312 170.368 39.368 170.35 39.3982C170.331 39.4286 170.307 39.4536 170.278 39.4729C170.248 39.4925 170.216 39.5067 170.18 39.5153C170.144 39.5238 170.108 39.5283 170.07 39.5283H169.84C169.768 39.5283 169.703 39.5223 169.649 39.5103C169.593 39.4986 169.543 39.4768 169.494 39.4454C169.444 39.4141 169.395 39.3713 169.347 39.3171C169.298 39.263 169.246 39.1938 169.19 39.1092L167.59 36.7187C167.505 36.5952 167.421 36.4659 167.336 36.3306C167.252 36.1952 167.173 36.0635 167.099 35.9358H167.09C167.095 36.0918 167.101 36.2509 167.102 36.4133C167.106 36.5757 167.106 36.7371 167.106 36.8973V39.434C167.106 39.4491 167.101 39.4639 167.09 39.4779C167.077 39.4921 167.059 39.5027 167.032 39.5103C167.005 39.518 166.969 39.5243 166.924 39.5299C166.881 39.5353 166.824 39.538 166.755 39.538C166.687 39.538 166.631 39.5353 166.586 39.5299C166.541 39.5243 166.507 39.518 166.482 39.5103C166.455 39.5027 166.437 39.4921 166.426 39.4779C166.414 39.4639 166.408 39.4491 166.408 39.434V35.5558C166.408 35.4693 166.439 35.4076 166.5 35.3708C166.563 35.3339 166.629 35.3154 166.701 35.3154H167.045C167.126 35.3154 167.194 35.3208 167.248 35.3317C167.302 35.3425 167.352 35.3605 167.396 35.3853C167.439 35.4102 167.48 35.4449 167.52 35.4893C167.561 35.5337 167.604 35.5895 167.647 35.6565L168.879 37.5014C168.955 37.614 169.029 37.724 169.099 37.8311C169.169 37.9382 169.237 38.0438 169.302 38.1478C169.368 38.2517 169.433 38.354 169.496 38.4548C169.561 38.5555 169.624 38.6567 169.687 38.7585H169.69C169.685 38.5873 169.683 38.4093 169.681 38.2242C169.68 38.039 169.68 37.8609 169.68 37.6897V35.4098C169.68 35.3947 169.685 35.3803 169.696 35.3674C169.707 35.3544 169.726 35.3431 169.753 35.3334C169.78 35.3236 169.816 35.3166 169.861 35.3123C169.904 35.3078 169.964 35.3057 170.034 35.3057C170.097 35.3057 170.151 35.3078 170.198 35.3123C170.243 35.3166 170.278 35.3236 170.304 35.3334C170.329 35.3431 170.349 35.3544 170.359 35.3674C170.372 35.3803 170.377 35.3947 170.377 35.4098V39.2878Z" fill="black"/>
</svg>
